# xmcd
#
# Track frame offsets: 
#        150
#        13054
#        25638
#        38495
#        51312
#        66286
#        83345
#        98967
#        117266
#        130750
#        149216
#        160061
#
# Disc length: 2314 seconds
#
# Revision: 0
# Processed by: cddbd v1.5.2PL0 Copyright (c) Steve Scherf et al.
# Submitted via: ExactAudioCopyFreeDBPlugin 1.0
#
DISCID=9909080c
DTITLE=Naomi Shelton and the Gospel Queens - Cold World
DYEAR=2014
DGENRE=Gospel
TTITLE0=Sinner
TTITLE1=Movin'
TTITLE2=Heaven Is Mine
TTITLE3=Bound For The Promised Land
TTITLE4=It's A Cold, Cold World
TTITLE5=I Don't Know
TTITLE6=Get Up, Child
TTITLE7=One Day
TTITLE8=I Earned Mine
TTITLE9=Humble Me
TTITLE10=Thank You Lord
TTITLE11=Everybody Knows (River Song)
EXTD=
EXTT0=
EXTT1=
EXTT2=
EXTT3=
EXTT4=
EXTT5=
EXTT6=
EXTT7=
EXTT8=
EXTT9=
EXTT10=
EXTT11=
PLAYORDER=
